<?xml version="1.0" encoding="UTF-8" standalone="no"?>
<svg
   class="synoptique-svg"
   viewBox="0 0 1400 950"
   preserveAspectRatio="xMidYMid meet"
   version="1.1"
   id="svg76"
   xmlns="http://www.w3.org/2000/svg">
   
  <defs>
    <!-- Fond principal gradient industriel -->
    <linearGradient id="bgGradient" x1="0%" y1="0%" x2="0%" y2="100%">
      <stop offset="0%" stop-color="#0a1628"/>
      <stop offset="100%" stop-color="#0d1f3c"/>
    </linearGradient>
    
    <!-- Style panneau équipement -->
    <linearGradient id="panelGrad" x1="0%" y1="0%" x2="0%" y2="100%">
      <stop offset="0%" stop-color="#1a2d4a"/>
      <stop offset="100%" stop-color="#0f1d32"/>
    </linearGradient>
    
    <!-- Bus bar gradient -->
    <linearGradient id="busGrad" x1="0%" y1="0%" x2="0%" y2="100%">
      <stop offset="0%" stop-color="#f59e0b"/>
      <stop offset="50%" stop-color="#d97706"/>
      <stop offset="100%" stop-color="#b45309"/>
    </linearGradient>
    
    <!-- Ligne DC active -->
    <linearGradient id="dcLineActive" x1="0%" y1="0%" x2="100%" y2="0%">
      <stop offset="0%" stop-color="#06b6d4"/>
      <stop offset="50%" stop-color="#22d3ee"/>
      <stop offset="100%" stop-color="#06b6d4"/>
    </linearGradient>
    
    <!-- LED Glow effects -->
    <filter id="glowGreen" x="-50%" y="-50%" width="200%" height="200%">
      <feGaussianBlur stdDeviation="2" result="blur"/>
      <feMerge>
        <feMergeNode in="blur"/>
        <feMergeNode in="SourceGraphic"/>
      </feMerge>
    </filter>
    
    <filter id="glowCyan" x="-50%" y="-50%" width="200%" height="200%">
      <feGaussianBlur stdDeviation="3" result="blur"/>
      <feMerge>
        <feMergeNode in="blur"/>
        <feMergeNode in="SourceGraphic"/>
      </feMerge>
    </filter>
    
    <filter id="glowOrange" x="-50%" y="-50%" width="200%" height="200%">
      <feGaussianBlur stdDeviation="2" result="blur"/>
      <feMerge>
        <feMergeNode in="blur"/>
        <feMergeNode in="SourceGraphic"/>
      </feMerge>
    </filter>
    
    <!-- Panel shadow -->
    <filter id="panelShadow" x="-10%" y="-10%" width="120%" height="130%">
      <feDropShadow dx="0" dy="2" stdDeviation="4" flood-color="#000000" flood-opacity="0.5"/>
    </filter>
    
    <!-- Contactor gradient -->
    <linearGradient id="contactorGrad" x1="0%" y1="0%" x2="0%" y2="100%">
      <stop offset="0%" stop-color="#374151"/>
      <stop offset="100%" stop-color="#1f2937"/>
    </linearGradient>
  </defs>
  
  <!-- Fond principal -->
  <rect width="1400" height="950" fill="url(#bgGradient)"/>
  
  <!-- Grille technique subtile -->
  <defs>
    <pattern id="grid" width="50" height="50" patternUnits="userSpaceOnUse">
      <path d="M 50 0 L 0 0 0 50" fill="none" stroke="#1e3a5f" stroke-width="0.5" opacity="0.3"/>
    </pattern>
  </defs>
  <rect width="1400" height="950" fill="url(#grid)"/>
  
  <!-- ═══════════════════════════════════════════════════════════ -->
  <!-- BUS DC SUPERIEUR (ligne verte → cyan industriel) -->
  <!-- ═══════════════════════════════════════════════════════════ -->
  
  <!-- Bus supérieur horizontal -->
  <line x1="73" y1="97" x2="1358" y2="97" stroke="#06b6d4" stroke-width="5" filter="url(#glowCyan)"/>
  <line x1="73" y1="97" x2="1358" y2="97" stroke="#22d3ee" stroke-width="2"/>
  
  <!-- Lignes verticales du bus supérieur -->
  <line x1="74" y1="95" x2="74" y2="458" stroke="#06b6d4" stroke-width="4"/>
  <line x1="1356" y1="97" x2="1356" y2="457" stroke="#06b6d4" stroke-width="4"/>
  <line x1="684" y1="87" x2="684" y2="97" stroke="#06b6d4" stroke-width="4"/>
  
  <!-- ═══════════════════════════════════════════════════════════ -->
  <!-- G8 (en haut au centre) -->
  <!-- ═══════════════════════════════════════════════════════════ -->
  <g id="G8" class="pole-groupe" transform="translate(-15.6,-23.5)">
    <rect id="G8-bg" x="625" y="30" width="150" height="80" fill="url(#panelGrad)" stroke="#2563eb" stroke-width="1.5" rx="4" filter="url(#panelShadow)"/>
    <rect x="625" y="30" width="150" height="3" fill="#3b82f6" rx="4"/>
    <text x="700" y="48" font-size="11px" text-anchor="middle" font-weight="bold" fill="#60a5fa" font-family="monospace">G8</text>

    <!-- M13 -->
    <g id="M1">
      <rect id="M1-border" x="628" y="58" width="74" height="34" fill="none" stroke="#334155" stroke-width="2" rx="3"/>
      <rect x="630" y="60" width="70" height="30" fill="#0f172a" stroke="#334155" stroke-width="1" rx="2"/>
      <text x="635" y="72" font-size="7px" fill="#64748b" font-family="monospace">VDC</text>
      <rect x="655" y="62" width="40" height="12" fill="#020617" stroke="#1e293b" stroke-width="0.5" rx="1"/>
      <text id="M1-vdc" x="675" y="71" font-size="8px" text-anchor="middle" fill="#22d3ee" font-family="monospace">0</text>
      <text x="635" y="84" font-size="7px" fill="#64748b" font-family="monospace">IDC</text>
      <rect x="655" y="74" width="40" height="12" fill="#020617" stroke="#1e293b" stroke-width="0.5" rx="1"/>
      <text id="M1-idc" x="675" y="83" font-size="8px" text-anchor="middle" fill="#22d3ee" font-family="monospace">0</text>
    </g>
    <text x="665" y="105" font-size="8px" text-anchor="middle" fill="#94a3b8" font-family="monospace">M1</text>
    
    <!-- M14 -->
    <g id="M2">
      <rect id="M2-border" x="703" y="58" width="74" height="34" fill="none" stroke="#334155" stroke-width="2" rx="3"/>
      <rect x="705" y="60" width="70" height="30" fill="#0f172a" stroke="#334155" stroke-width="1" rx="2"/>
      <text x="710" y="72" font-size="7px" fill="#64748b" font-family="monospace">VDC</text>
      <rect x="730" y="62" width="40" height="12" fill="#020617" stroke="#1e293b" stroke-width="0.5" rx="1"/>
      <text id="M2-vdc" x="750" y="71" font-size="8px" text-anchor="middle" fill="#22d3ee" font-family="monospace">0</text>
      <text x="710" y="84" font-size="7px" fill="#64748b" font-family="monospace">IDC</text>
      <rect x="730" y="74" width="40" height="12" fill="#020617" stroke="#1e293b" stroke-width="0.5" rx="1"/>
      <text id="M2-idc" x="750" y="83" font-size="8px" text-anchor="middle" fill="#22d3ee" font-family="monospace">0</text>
    </g>
    <text x="740" y="105" font-size="8px" text-anchor="middle" fill="#94a3b8" font-family="monospace">M2</text>
  </g>

  <!-- ═══════════════════════════════════════════════════════════ -->
  <!-- G1 (label G1 dans l'interface) -->
  <!-- ═══════════════════════════════════════════════════════════ -->
  <g id="G1" class="pole-groupe" transform="translate(-896, 4)">
    <rect id="G1-bg" x="1030" y="240" width="80" height="80" fill="url(#panelGrad)" stroke="#2563eb" stroke-width="1.5" rx="4" filter="url(#panelShadow)"/>
    <rect x="1030" y="240" width="80" height="3" fill="#3b82f6" rx="4"/>
    <text x="1070" y="258" font-size="11px" text-anchor="middle" font-weight="bold" fill="#60a5fa" font-family="monospace">G1</text>

    <g id="M3">
      <rect id="M3-border" x="1033" y="268" width="74" height="34" fill="none" stroke="#334155" stroke-width="2" rx="3"/>
      <rect x="1035" y="270" width="70" height="30" fill="#0f172a" stroke="#334155" stroke-width="1" rx="2"/>
      <text x="1040" y="282" font-size="7px" fill="#64748b" font-family="monospace">VDC</text>
      <rect x="1060" y="272" width="40" height="12" fill="#020617" stroke="#1e293b" stroke-width="0.5" rx="1"/>
      <text id="M3-vdc" x="1080" y="281" font-size="8px" text-anchor="middle" fill="#22d3ee" font-family="monospace">0</text>
      <text x="1040" y="294" font-size="7px" fill="#64748b" font-family="monospace">IDC</text>
      <rect x="1060" y="284" width="40" height="12" fill="#020617" stroke="#1e293b" stroke-width="0.5" rx="1"/>
      <text id="M3-idc" x="1080" y="293" font-size="8px" text-anchor="middle" fill="#22d3ee" font-family="monospace">0</text>
    </g>
  </g>
  
  <!-- Ligne verticale G1 -->
  <line x1="175" y1="322" x2="175" y2="454" stroke="#475569" stroke-width="2"/>

  <!-- ═══════════════════════════════════════════════════════════ -->
  <!-- G2 -->
  <!-- ═══════════════════════════════════════════════════════════ -->
  <g id="G2" class="pole-groupe" transform="translate(38, 7)">
    <rect id="G2-bg" x="350" y="240" width="80" height="80" fill="url(#panelGrad)" stroke="#2563eb" stroke-width="1.5" rx="4" filter="url(#panelShadow)"/>
    <rect x="350" y="240" width="80" height="3" fill="#3b82f6" rx="4"/>
    <text x="390" y="258" font-size="11px" text-anchor="middle" font-weight="bold" fill="#60a5fa" font-family="monospace">G2</text>

    <g id="M6">
      <rect id="M6-border" x="353" y="268" width="74" height="34" fill="none" stroke="#334155" stroke-width="2" rx="3"/>
      <rect x="355" y="270" width="70" height="30" fill="#0f172a" stroke="#334155" stroke-width="1" rx="2"/>
      <text x="360" y="282" font-size="7px" fill="#64748b" font-family="monospace">VDC</text>
      <rect x="380" y="272" width="40" height="12" fill="#020617" stroke="#1e293b" stroke-width="0.5" rx="1"/>
      <text id="M6-vdc" x="400" y="281" font-size="8px" text-anchor="middle" fill="#22d3ee" font-family="monospace">0</text>
      <text x="360" y="294" font-size="7px" fill="#64748b" font-family="monospace">IDC</text>
      <rect x="380" y="284" width="40" height="12" fill="#020617" stroke="#1e293b" stroke-width="0.5" rx="1"/>
      <text id="M6-idc" x="400" y="293" font-size="8px" text-anchor="middle" fill="#22d3ee" font-family="monospace">0</text>
    </g>
    <text x="390" y="315" font-size="8px" text-anchor="middle" fill="#94a3b8" font-family="monospace">M6</text>
  </g>
  
  <line x1="426" y1="327" x2="426" y2="462" stroke="#475569" stroke-width="2"/>

  <!-- ═══════════════════════════════════════════════════════════ -->
  <!-- G3 -->
  <!-- ═══════════════════════════════════════════════════════════ -->
  <g id="G3" class="pole-groupe" transform="translate(187, 10)">
    <rect id="G3-bg" x="690" y="240" width="80" height="80" fill="url(#panelGrad)" stroke="#2563eb" stroke-width="1.5" rx="4" filter="url(#panelShadow)"/>
    <rect x="690" y="240" width="80" height="3" fill="#3b82f6" rx="4"/>
    <text x="730" y="258" font-size="11px" text-anchor="middle" font-weight="bold" fill="#60a5fa" font-family="monospace">G3</text>

    <g id="M9">
      <rect id="M9-border" x="693" y="268" width="74" height="34" fill="none" stroke="#334155" stroke-width="2" rx="3"/>
      <rect x="695" y="270" width="70" height="30" fill="#0f172a" stroke="#334155" stroke-width="1" rx="2"/>
      <text x="700" y="282" font-size="7px" fill="#64748b" font-family="monospace">VDC</text>
      <rect x="720" y="272" width="40" height="12" fill="#020617" stroke="#1e293b" stroke-width="0.5" rx="1"/>
      <text id="M9-vdc" x="740" y="281" font-size="8px" text-anchor="middle" fill="#22d3ee" font-family="monospace">0</text>
      <text x="700" y="294" font-size="7px" fill="#64748b" font-family="monospace">IDC</text>
      <rect x="720" y="284" width="40" height="12" fill="#020617" stroke="#1e293b" stroke-width="0.5" rx="1"/>
      <text id="M9-idc" x="740" y="293" font-size="8px" text-anchor="middle" fill="#22d3ee" font-family="monospace">0</text>
    </g>
    <text x="730" y="315" font-size="8px" text-anchor="middle" fill="#94a3b8" font-family="monospace">M9</text>
  </g>

  <!-- ═══════════════════════════════════════════════════════════ -->
  <!-- G4 -->
  <!-- ═══════════════════════════════════════════════════════════ -->
  <g id="G4" class="pole-groupe" transform="translate(473, 12)">
      <rect id="G4-bg" x="690" y="240" width="80" height="80" fill="url(#panelGrad)" stroke="#2563eb" stroke-width="1.5" rx="4" filter="url(#panelShadow)"/>
      <rect x="690" y="240" width="80" height="3" fill="#3b82f6" rx="4"/>
      <text x="730" y="258" font-size="11px" text-anchor="middle" font-weight="bold" fill="#60a5fa" font-family="monospace">G4</text>

      <g id="M12">
        <rect id="M12-border" x="693" y="268" width="74" height="34" fill="none" stroke="#334155" stroke-width="2" rx="3"/>
        <rect x="695" y="270" width="70" height="30" fill="#0f172a" stroke="#334155" stroke-width="1" rx="2"/>
        <text x="700" y="282" font-size="7px" fill="#64748b" font-family="monospace">VDC</text>
        <rect x="720" y="272" width="40" height="12" fill="#020617" stroke="#1e293b" stroke-width="0.5" rx="1"/>
        <text id="M12-vdc" x="740" y="281" font-size="8px" text-anchor="middle" fill="#22d3ee" font-family="monospace">0</text>
        <text x="700" y="294" font-size="7px" fill="#64748b" font-family="monospace">IDC</text>
        <rect x="720" y="284" width="40" height="12" fill="#020617" stroke="#1e293b" stroke-width="0.5" rx="1"/>
        <text id="M12-idc" x="740" y="293" font-size="8px" text-anchor="middle" fill="#22d3ee" font-family="monospace">0</text>
      </g>
      <text x="730" y="315" font-size="8px" text-anchor="middle" fill="#94a3b8" font-family="monospace">M12</text>
  </g>

  <line x1="693" y1="222" x2="693" y2="457" stroke="#475569" stroke-width="2"/>

  <!-- ═══════════════════════════════════════════════════════════ -->
  <!-- G5 (avec M4, M5) -->
  <!-- ═══════════════════════════════════════════════════════════ -->
  <g id="G5" class="pole-groupe" transform="translate(-296, -95)">
    <rect id="G5-bg" x="520" y="240" width="150" height="80" fill="url(#panelGrad)" stroke="#2563eb" stroke-width="1.5" rx="4" filter="url(#panelShadow)"/>
    <rect x="520" y="240" width="150" height="3" fill="#3b82f6" rx="4"/>
    <text x="595" y="258" font-size="11px" text-anchor="middle" font-weight="bold" fill="#60a5fa" font-family="monospace">G5</text>

    <!-- M3 -->
    <g id="M4">
      <rect id="M4-border" x="523" y="268" width="74" height="34" fill="none" stroke="#334155" stroke-width="2" rx="3"/>
      <rect x="525" y="270" width="70" height="30" fill="#0f172a" stroke="#334155" stroke-width="1" rx="2"/>
      <text x="530" y="282" font-size="7px" fill="#64748b" font-family="monospace">VDC</text>
      <rect x="550" y="272" width="40" height="12" fill="#020617" stroke="#1e293b" stroke-width="0.5" rx="1"/>
      <text id="M4-vdc" x="570" y="281" font-size="8px" text-anchor="middle" fill="#22d3ee" font-family="monospace">0</text>
      <text x="530" y="294" font-size="7px" fill="#64748b" font-family="monospace">IDC</text>
      <rect x="550" y="284" width="40" height="12" fill="#020617" stroke="#1e293b" stroke-width="0.5" rx="1"/>
      <text id="M4-idc" x="570" y="293" font-size="8px" text-anchor="middle" fill="#22d3ee" font-family="monospace">0</text>
    </g>
    <text x="560" y="315" font-size="8px" text-anchor="middle" fill="#94a3b8" font-family="monospace">M4</text>
    
    <!-- M4 -->
    <g id="M5">
      <rect id="M5-border" x="598" y="268" width="74" height="34" fill="none" stroke="#334155" stroke-width="2" rx="3"/>
      <rect x="600" y="270" width="70" height="30" fill="#0f172a" stroke="#334155" stroke-width="1" rx="2"/>
      <text x="605" y="282" font-size="7px" fill="#64748b" font-family="monospace">VDC</text>
      <rect x="625" y="272" width="40" height="12" fill="#020617" stroke="#1e293b" stroke-width="0.5" rx="1"/>
      <text id="M5-vdc" x="645" y="281" font-size="8px" text-anchor="middle" fill="#22d3ee" font-family="monospace">0</text>
      <text x="605" y="294" font-size="7px" fill="#64748b" font-family="monospace">IDC</text>
      <rect x="625" y="284" width="40" height="12" fill="#020617" stroke="#1e293b" stroke-width="0.5" rx="1"/>
      <text id="M5-idc" x="645" y="293" font-size="8px" text-anchor="middle" fill="#22d3ee" font-family="monospace">0</text>
    </g>
    <text x="635" y="315" font-size="8px" text-anchor="middle" fill="#94a3b8" font-family="monospace">M5</text>
  </g>
  
  <line x1="299" y1="226" x2="299" y2="454" stroke="#475569" stroke-width="2"/>

  <!-- ═══════════════════════════════════════════════════════════ -->
  <!-- G6 (avec M7, M8) -->
  <!-- ═══════════════════════════════════════════════════════════ -->
  <g id="G6" class="pole-groupe" transform="translate(-243, -96)">
    <rect id="G6-bg" x="860" y="240" width="150" height="80" fill="url(#panelGrad)" stroke="#2563eb" stroke-width="1.5" rx="4" filter="url(#panelShadow)"/>
    <rect x="860" y="240" width="150" height="3" fill="#3b82f6" rx="4"/>
    <text x="935" y="258" font-size="11px" text-anchor="middle" font-weight="bold" fill="#60a5fa" font-family="monospace">G6</text>

    <!-- M5 -->
    <g id="M7">
      <rect id="M7-border" x="863" y="268" width="74" height="34" fill="none" stroke="#334155" stroke-width="2" rx="3"/>
      <rect x="865" y="270" width="70" height="30" fill="#0f172a" stroke="#334155" stroke-width="1" rx="2"/>
      <text x="870" y="282" font-size="7px" fill="#64748b" font-family="monospace">VDC</text>
      <rect x="890" y="272" width="40" height="12" fill="#020617" stroke="#1e293b" stroke-width="0.5" rx="1"/>
      <text id="M7-vdc" x="910" y="281" font-size="8px" text-anchor="middle" fill="#22d3ee" font-family="monospace">0</text>
      <text x="870" y="294" font-size="7px" fill="#64748b" font-family="monospace">IDC</text>
      <rect x="890" y="284" width="40" height="12" fill="#020617" stroke="#1e293b" stroke-width="0.5" rx="1"/>
      <text id="M7-idc" x="910" y="293" font-size="8px" text-anchor="middle" fill="#22d3ee" font-family="monospace">0</text>
    </g>
    <text x="900" y="315" font-size="8px" text-anchor="middle" fill="#94a3b8" font-family="monospace">M7</text>
    
    <!-- M6 -->
    <g id="M8">
      <rect id="M8-border" x="938" y="268" width="74" height="34" fill="none" stroke="#334155" stroke-width="2" rx="3"/>
      <rect x="940" y="270" width="70" height="30" fill="#0f172a" stroke="#334155" stroke-width="1" rx="2"/>
      <text x="945" y="282" font-size="7px" fill="#64748b" font-family="monospace">VDC</text>
      <rect x="965" y="272" width="40" height="12" fill="#020617" stroke="#1e293b" stroke-width="0.5" rx="1"/>
      <text id="M8-vdc" x="985" y="281" font-size="8px" text-anchor="middle" fill="#22d3ee" font-family="monospace">0</text>
      <text x="945" y="294" font-size="7px" fill="#64748b" font-family="monospace">IDC</text>
      <rect x="965" y="284" width="40" height="12" fill="#020617" stroke="#1e293b" stroke-width="0.5" rx="1"/>
      <text id="M8-idc" x="985" y="293" font-size="8px" text-anchor="middle" fill="#22d3ee" font-family="monospace">0</text>
    </g>
    <text x="975" y="315" font-size="8px" text-anchor="middle" fill="#94a3b8" font-family="monospace">M8</text>
  </g>
  
  <line x1="916" y1="331" x2="916" y2="457" stroke="#475569" stroke-width="2"/>

  <!-- ═══════════════════════════════════════════════════════════ -->
  <!-- G7 (avec M10, M11) -->
  <!-- ═══════════════════════════════════════════════════════════ -->
  <g id="G7" class="pole-groupe" transform="translate(799, -93)">
    <rect id="G7-bg" x="180" y="240" width="150" height="80" fill="url(#panelGrad)" stroke="#2563eb" stroke-width="1.5" rx="4" filter="url(#panelShadow)"/>
    <rect x="180" y="240" width="150" height="3" fill="#3b82f6" rx="4"/>
    <text x="255" y="258" font-size="11px" text-anchor="middle" font-weight="bold" fill="#60a5fa" font-family="monospace">G7</text>

    <!-- M1 -->
    <g id="M10">
      <rect id="M10-border" x="183" y="268" width="74" height="34" fill="none" stroke="#334155" stroke-width="2" rx="3"/>
      <rect x="185" y="270" width="70" height="30" fill="#0f172a" stroke="#334155" stroke-width="1" rx="2"/>
      <text x="190" y="282" font-size="7px" fill="#64748b" font-family="monospace">VDC</text>
      <rect x="210" y="272" width="40" height="12" fill="#020617" stroke="#1e293b" stroke-width="0.5" rx="1"/>
      <text id="M10-vdc" x="230" y="281" font-size="8px" text-anchor="middle" fill="#22d3ee" font-family="monospace">0</text>
      <text x="190" y="294" font-size="7px" fill="#64748b" font-family="monospace">IDC</text>
      <rect x="210" y="284" width="40" height="12" fill="#020617" stroke="#1e293b" stroke-width="0.5" rx="1"/>
      <text id="M10-idc" x="230" y="293" font-size="8px" text-anchor="middle" fill="#22d3ee" font-family="monospace">0</text>
    </g>
    <text x="220" y="315" font-size="8px" text-anchor="middle" fill="#94a3b8" font-family="monospace">M10</text>
    
    <!-- M2 -->
    <g id="M11">
      <rect id="M11-border" x="258" y="268" width="74" height="34" fill="none" stroke="#334155" stroke-width="2" rx="3"/>
      <rect x="260" y="270" width="70" height="30" fill="#0f172a" stroke="#334155" stroke-width="1" rx="2"/>
      <text x="265" y="282" font-size="7px" fill="#64748b" font-family="monospace">VDC</text>
      <rect x="285" y="272" width="40" height="12" fill="#020617" stroke="#1e293b" stroke-width="0.5" rx="1"/>
      <text id="M11-vdc" x="305" y="281" font-size="8px" text-anchor="middle" fill="#22d3ee" font-family="monospace">0</text>
      <text x="265" y="294" font-size="7px" fill="#64748b" font-family="monospace">IDC</text>
      <rect x="285" y="284" width="40" height="12" fill="#020617" stroke="#1e293b" stroke-width="0.5" rx="1"/>
      <text id="M11-idc" x="305" y="293" font-size="8px" text-anchor="middle" fill="#22d3ee" font-family="monospace">0</text>
    </g>
    <text x="295" y="315" font-size="8px" text-anchor="middle" fill="#94a3b8" font-family="monospace">M11</text>
  </g>
  
  <line x1="1054" y1="228" x2="1054" y2="457" stroke="#475569" stroke-width="2"/>
  <line x1="1203" y1="332" x2="1203" y2="456" stroke="#475569" stroke-width="2"/>

  <!-- ═══════════════════════════════════════════════════════════ -->
  <!-- BUS PRINCIPAL DC -->
  <!-- ═══════════════════════════════════════════════════════════ -->
  <rect x="72" y="452" width="1286" height="10" fill="url(#busGrad)" rx="2"/>
  <line x1="72" y1="452" x2="1358" y2="452" stroke="#fbbf24" stroke-width="1" opacity="0.5"/>

  <!-- ═══════════════════════════════════════════════════════════ -->
  <!-- CONTACTEURS K1-K8 (symboles électriques) -->
  <!-- États: ouvert (contact oblique) / fermé (contact vertical) -->
  <!-- ═══════════════════════════════════════════════════════════ -->
  <!-- 
    GUIDE ANIMATION JS:
    Pour chaque Kx:
    - Kx-bg (rect): stroke → #334155 (ouvert) / #22c55e (fermé)
    - Kx-contact (line): x2 → 12 (ouvert) / 0 (fermé), stroke → #f59e0b (ouvert) / #22c55e (fermé)
    - Kx-led (circle): fill → #525252 (ouvert) / #22c55e (fermé), filter → none / url(#glowGreen)
  -->
  
  <!-- K1 - Contact ouvert -->
  <g id="K1" transform="translate(122, 432)">
    <!-- Fond du contacteur -->
    <rect x="-20" y="-5" width="40" height="50" fill="#0f172a" stroke="#334155" stroke-width="1" rx="3"/>
    <!-- Bornes -->
    <circle cx="0" cy="0" r="4" fill="#475569" stroke="#22d3ee" stroke-width="1.5"/>
    <circle cx="0" cy="40" r="4" fill="#475569" stroke="#22d3ee" stroke-width="1.5"/>
    <!-- Contact mobile (ouvert) -->
    <line id="K1-contact" x1="0" y1="4" x2="12" y2="20" stroke="#f59e0b" stroke-width="3" stroke-linecap="round"/>
    <!-- Contact fixe -->
    <line x1="0" y1="36" x2="0" y2="28" stroke="#f59e0b" stroke-width="3" stroke-linecap="round"/>
    <!-- LED status -->
    <circle id="K1-led" cx="12" cy="4" r="3" fill="#525252"/>
    <!-- Label -->
    <text x="0" y="55" font-size="9px" text-anchor="middle" fill="#94a3b8" font-family="monospace">K1</text>
  </g>
  
  <!-- K2 -->
  <g id="K2" transform="translate(224, 432)">
    <rect x="-20" y="-5" width="40" height="50" fill="#0f172a" stroke="#334155" stroke-width="1" rx="3"/>
    <circle cx="0" cy="0" r="4" fill="#475569" stroke="#22d3ee" stroke-width="1.5"/>
    <circle cx="0" cy="40" r="4" fill="#475569" stroke="#22d3ee" stroke-width="1.5"/>
    <line id="K2-contact" x1="0" y1="4" x2="12" y2="20" stroke="#f59e0b" stroke-width="3" stroke-linecap="round"/>
    <line x1="0" y1="36" x2="0" y2="28" stroke="#f59e0b" stroke-width="3" stroke-linecap="round"/>
    <circle id="K2-led" cx="12" cy="4" r="3" fill="#525252"/>
    <text x="0" y="55" font-size="9px" text-anchor="middle" fill="#94a3b8" font-family="monospace">K2</text>
  </g>
  
  <!-- K3 -->
  <g id="K3" transform="translate(354, 432)">
    <rect x="-20" y="-5" width="40" height="50" fill="#0f172a" stroke="#334155" stroke-width="1" rx="3"/>
    <circle cx="0" cy="0" r="4" fill="#475569" stroke="#22d3ee" stroke-width="1.5"/>
    <circle cx="0" cy="40" r="4" fill="#475569" stroke="#22d3ee" stroke-width="1.5"/>
    <line id="K3-contact" x1="0" y1="4" x2="12" y2="20" stroke="#f59e0b" stroke-width="3" stroke-linecap="round"/>
    <line x1="0" y1="36" x2="0" y2="28" stroke="#f59e0b" stroke-width="3" stroke-linecap="round"/>
    <circle id="K3-led" cx="12" cy="4" r="3" fill="#525252"/>
    <text x="0" y="55" font-size="9px" text-anchor="middle" fill="#94a3b8" font-family="monospace">K3</text>
  </g>
  
  <!-- K4 - Exemple fermé (vert) -->
  <g id="K4" transform="translate(524, 432)">
    <rect x="-20" y="-5" width="40" height="50" fill="#0f172a" stroke="#22c55e" stroke-width="1.5" rx="3"/>
    <circle cx="0" cy="0" r="4" fill="#475569" stroke="#22d3ee" stroke-width="1.5"/>
    <circle cx="0" cy="40" r="4" fill="#475569" stroke="#22d3ee" stroke-width="1.5"/>
    <!-- Contact fermé (vertical) -->
    <line id="K4-contact" x1="0" y1="4" x2="0" y2="24" stroke="#22c55e" stroke-width="3" stroke-linecap="round"/>
    <line x1="0" y1="36" x2="0" y2="28" stroke="#22c55e" stroke-width="3" stroke-linecap="round"/>
    <circle id="K4-led" cx="12" cy="4" r="3" fill="#22c55e" filter="url(#glowGreen)"/>
    <text x="0" y="55" font-size="9px" text-anchor="middle" fill="#94a3b8" font-family="monospace">K4</text>
  </g>
  
  <!-- K5 -->
  <g id="K5" transform="translate(834, 432)">
    <rect x="-20" y="-5" width="40" height="50" fill="#0f172a" stroke="#334155" stroke-width="1" rx="3"/>
    <circle cx="0" cy="0" r="4" fill="#475569" stroke="#22d3ee" stroke-width="1.5"/>
    <circle cx="0" cy="40" r="4" fill="#475569" stroke="#22d3ee" stroke-width="1.5"/>
    <line id="K5-contact" x1="0" y1="4" x2="12" y2="20" stroke="#f59e0b" stroke-width="3" stroke-linecap="round"/>
    <line x1="0" y1="36" x2="0" y2="28" stroke="#f59e0b" stroke-width="3" stroke-linecap="round"/>
    <circle id="K5-led" cx="12" cy="4" r="3" fill="#525252"/>
    <text x="0" y="55" font-size="9px" text-anchor="middle" fill="#94a3b8" font-family="monospace">K5</text>
  </g>
  
  <!-- K6 - Exemple fermé -->
  <g id="K6" transform="translate(1004, 432)">
    <rect x="-20" y="-5" width="40" height="50" fill="#0f172a" stroke="#22c55e" stroke-width="1.5" rx="3"/>
    <circle cx="0" cy="0" r="4" fill="#475569" stroke="#22d3ee" stroke-width="1.5"/>
    <circle cx="0" cy="40" r="4" fill="#475569" stroke="#22d3ee" stroke-width="1.5"/>
    <line id="K6-contact" x1="0" y1="4" x2="0" y2="24" stroke="#22c55e" stroke-width="3" stroke-linecap="round"/>
    <line x1="0" y1="36" x2="0" y2="28" stroke="#22c55e" stroke-width="3" stroke-linecap="round"/>
    <circle id="K6-led" cx="12" cy="4" r="3" fill="#22c55e" filter="url(#glowGreen)"/>
    <text x="0" y="55" font-size="9px" text-anchor="middle" fill="#94a3b8" font-family="monospace">K6</text>
  </g>
  
  <!-- K7 -->
  <g id="K7" transform="translate(1134, 432)">
    <rect x="-20" y="-5" width="40" height="50" fill="#0f172a" stroke="#334155" stroke-width="1" rx="3"/>
    <circle cx="0" cy="0" r="4" fill="#475569" stroke="#22d3ee" stroke-width="1.5"/>
    <circle cx="0" cy="40" r="4" fill="#475569" stroke="#22d3ee" stroke-width="1.5"/>
    <line id="K7-contact" x1="0" y1="4" x2="12" y2="20" stroke="#f59e0b" stroke-width="3" stroke-linecap="round"/>
    <line x1="0" y1="36" x2="0" y2="28" stroke="#f59e0b" stroke-width="3" stroke-linecap="round"/>
    <circle id="K7-led" cx="12" cy="4" r="3" fill="#525252"/>
    <text x="0" y="55" font-size="9px" text-anchor="middle" fill="#94a3b8" font-family="monospace">K7</text>
  </g>
  
  <!-- K8 -->
  <g id="K8" transform="translate(1305, 432)">
    <rect x="-20" y="-5" width="40" height="50" fill="#0f172a" stroke="#334155" stroke-width="1" rx="3"/>
    <circle cx="0" cy="0" r="4" fill="#475569" stroke="#22d3ee" stroke-width="1.5"/>
    <circle cx="0" cy="40" r="4" fill="#475569" stroke="#22d3ee" stroke-width="1.5"/>
    <line id="K8-contact" x1="0" y1="4" x2="12" y2="20" stroke="#f59e0b" stroke-width="3" stroke-linecap="round"/>
    <line x1="0" y1="36" x2="0" y2="28" stroke="#f59e0b" stroke-width="3" stroke-linecap="round"/>
    <circle id="K8-led" cx="12" cy="4" r="3" fill="#525252"/>
    <text x="0" y="55" font-size="9px" text-anchor="middle" fill="#94a3b8" font-family="monospace">K8</text>
  </g>

  <!-- ═══════════════════════════════════════════════════════════ -->
  <!-- G9 (en bas gauche) -->
  <!-- ═══════════════════════════════════════════════════════════ -->
  <g id="G9" class="pole-groupe" transform="translate(79, -23)">
    <rect id="G9-bg" x="180" y="620" width="80" height="80" fill="url(#panelGrad)" stroke="#2563eb" stroke-width="1.5" rx="4" filter="url(#panelShadow)"/>
    <rect x="180" y="620" width="80" height="3" fill="#3b82f6" rx="4"/>
    <text x="220" y="638" font-size="11px" text-anchor="middle" font-weight="bold" fill="#60a5fa" font-family="monospace">G9</text>

    <g id="M13">
      <rect id="M13-border" x="183" y="648" width="74" height="34" fill="none" stroke="#334155" stroke-width="2" rx="3"/>
      <rect x="185" y="650" width="70" height="30" fill="#0f172a" stroke="#334155" stroke-width="1" rx="2"/>
      <text x="190" y="662" font-size="7px" fill="#64748b" font-family="monospace">VDC</text>
      <rect x="210" y="652" width="40" height="12" fill="#020617" stroke="#1e293b" stroke-width="0.5" rx="1"/>
      <text id="M13-vdc" x="230" y="661" font-size="8px" text-anchor="middle" fill="#22d3ee" font-family="monospace">0</text>
      <text x="190" y="674" font-size="7px" fill="#64748b" font-family="monospace">IDC</text>
      <rect x="210" y="664" width="40" height="12" fill="#020617" stroke="#1e293b" stroke-width="0.5" rx="1"/>
      <text id="M13-idc" x="230" y="673" font-size="8px" text-anchor="middle" fill="#22d3ee" font-family="monospace">0</text>
    </g>
    <text x="220" y="695" font-size="8px" text-anchor="middle" fill="#94a3b8" font-family="monospace">M13</text>
  </g>

  <!-- Lignes G9 -->
  <line x1="299" y1="677" x2="299" y2="757" stroke="#475569" stroke-width="2"/>
  <line x1="176" y1="757" x2="403" y2="757" stroke="#475569" stroke-width="3"/>

  <!-- K9 -->
  <g id="K9" transform="translate(241, 732)">
    <rect x="-20" y="-5" width="40" height="50" fill="#0f172a" stroke="#334155" stroke-width="1" rx="3"/>
    <circle cx="0" cy="0" r="4" fill="#475569" stroke="#22d3ee" stroke-width="1.5"/>
    <circle cx="0" cy="40" r="4" fill="#475569" stroke="#22d3ee" stroke-width="1.5"/>
    <line id="K9-contact" x1="0" y1="4" x2="12" y2="20" stroke="#f59e0b" stroke-width="3" stroke-linecap="round"/>
    <line x1="0" y1="36" x2="0" y2="28" stroke="#f59e0b" stroke-width="3" stroke-linecap="round"/>
    <circle id="K9-led" cx="12" cy="4" r="3" fill="#525252"/>
    <text x="0" y="55" font-size="9px" text-anchor="middle" fill="#94a3b8" font-family="monospace">K9</text>
  </g>
  
  <!-- K10 -->
  <g id="K10" transform="translate(354, 732)">
    <rect x="-20" y="-5" width="40" height="50" fill="#0f172a" stroke="#334155" stroke-width="1" rx="3"/>
    <circle cx="0" cy="0" r="4" fill="#475569" stroke="#22d3ee" stroke-width="1.5"/>
    <circle cx="0" cy="40" r="4" fill="#475569" stroke="#22d3ee" stroke-width="1.5"/>
    <line id="K10-contact" x1="0" y1="4" x2="12" y2="20" stroke="#f59e0b" stroke-width="3" stroke-linecap="round"/>
    <line x1="0" y1="36" x2="0" y2="28" stroke="#f59e0b" stroke-width="3" stroke-linecap="round"/>
    <circle id="K10-led" cx="12" cy="4" r="3" fill="#525252"/>
    <text x="0" y="55" font-size="9px" text-anchor="middle" fill="#94a3b8" font-family="monospace">K10</text>
  </g>

  <!-- ═══════════════════════════════════════════════════════════ -->
  <!-- G10 (en bas droite) -->
  <!-- ═══════════════════════════════════════════════════════════ -->
  <g id="G10" class="pole-groupe" transform="translate(44, -23)">
      <rect id="G10-bg" x="1042" y="620" width="80" height="80" fill="url(#panelGrad)" stroke="#2563eb" stroke-width="1.5" rx="4" filter="url(#panelShadow)"/>
      <rect x="1042" y="620" width="80" height="3" fill="#3b82f6" rx="4"/>
      <text x="1082" y="638" font-size="11px" text-anchor="middle" font-weight="bold" fill="#60a5fa" font-family="monospace">G10</text>

      <g id="M14">
        <rect id="M14-border" x="1046" y="648" width="74" height="34" fill="none" stroke="#334155" stroke-width="2" rx="3"/>
        <rect x="1048" y="650" width="70" height="30" fill="#0f172a" stroke="#334155" stroke-width="1" rx="2"/>
        <text x="1053" y="662" font-size="7px" fill="#64748b" font-family="monospace">VDC</text>
        <rect x="1073" y="652" width="40" height="12" fill="#020617" stroke="#1e293b" stroke-width="0.5" rx="1"/>
        <text id="M14-vdc" x="1093" y="661" font-size="8px" text-anchor="middle" fill="#22d3ee" font-family="monospace">0</text>
        <text x="1053" y="674" font-size="7px" fill="#64748b" font-family="monospace">IDC</text>
        <rect x="1073" y="664" width="40" height="12" fill="#020617" stroke="#1e293b" stroke-width="0.5" rx="1"/>
        <text id="M14-idc" x="1093" y="673" font-size="8px" text-anchor="middle" fill="#22d3ee" font-family="monospace">0</text>
      </g>
      <text x="1082" y="693" font-size="8px" text-anchor="middle" fill="#94a3b8" font-family="monospace">M14</text>
  </g>

  <!-- Lignes G10 -->
  <line x1="1126" y1="677" x2="1126" y2="757" stroke="#475569" stroke-width="2"/>
  <line x1="919" y1="757" x2="1258" y2="757" stroke="#475569" stroke-width="3"/>

  <!-- K11 -->
  <g id="K11" transform="translate(1052, 732)">
    <rect x="-20" y="-5" width="40" height="50" fill="#0f172a" stroke="#334155" stroke-width="1" rx="3"/>
    <circle cx="0" cy="0" r="4" fill="#475569" stroke="#22d3ee" stroke-width="1.5"/>
    <circle cx="0" cy="40" r="4" fill="#475569" stroke="#22d3ee" stroke-width="1.5"/>
    <line id="K11-contact" x1="0" y1="4" x2="12" y2="20" stroke="#f59e0b" stroke-width="3" stroke-linecap="round"/>
    <line x1="0" y1="36" x2="0" y2="28" stroke="#f59e0b" stroke-width="3" stroke-linecap="round"/>
    <circle id="K11-led" cx="12" cy="4" r="3" fill="#525252"/>
    <text x="0" y="55" font-size="9px" text-anchor="middle" fill="#94a3b8" font-family="monospace">K11</text>
  </g>
  
  <!-- K12 - Exemple fermé -->
  <g id="K12" transform="translate(1187, 732)">
    <rect x="-20" y="-5" width="40" height="50" fill="#0f172a" stroke="#22c55e" stroke-width="1.5" rx="3"/>
    <circle cx="0" cy="0" r="4" fill="#475569" stroke="#22d3ee" stroke-width="1.5"/>
    <circle cx="0" cy="40" r="4" fill="#475569" stroke="#22d3ee" stroke-width="1.5"/>
    <line id="K12-contact" x1="0" y1="4" x2="0" y2="24" stroke="#22c55e" stroke-width="3" stroke-linecap="round"/>
    <line x1="0" y1="36" x2="0" y2="28" stroke="#22c55e" stroke-width="3" stroke-linecap="round"/>
    <circle id="K12-led" cx="12" cy="4" r="3" fill="#22c55e" filter="url(#glowGreen)"/>
    <text x="0" y="55" font-size="9px" text-anchor="middle" fill="#94a3b8" font-family="monospace">K12</text>
  </g>

  <!-- ═══════════════════════════════════════════════════════════ -->
  <!-- COLONNES VERTICALES VERS PDC -->
  <!-- ═══════════════════════════════════════════════════════════ -->
  <line x1="174" y1="457" x2="174" y2="857" stroke="#475569" stroke-width="3"/>
  <line x1="426" y1="457" x2="426" y2="857" stroke="#475569" stroke-width="3"/>
  <line x1="916" y1="457" x2="916" y2="857" stroke="#475569" stroke-width="3"/>
  <line x1="1257" y1="457" x2="1257" y2="867" stroke="#475569" stroke-width="3"/>

  <!-- ═══════════════════════════════════════════════════════════ -->
  <!-- KP (Contacteurs de puissance - symbole avec bobine) -->
  <!-- États: ouvert (contact oblique) / fermé (contact vertical) -->
  <!-- Éléments animables: KPx-bg (stroke), KPx-contact (x2, stroke), KPx-coil (stroke), KPx-led (fill) -->
  <!-- ═══════════════════════════════════════════════════════════ -->
  
  <!-- KP1 - Ouvert -->
  <g id="KP1" transform="translate(174, 785)">
    <!-- Fond -->
    <rect id="KP1-bg" x="-28" y="-8" width="56" height="70" fill="#0f172a" stroke="#334155" stroke-width="1.5" rx="4"/>
    <!-- Borne haute -->
    <line x1="0" y1="-8" x2="0" y2="2" stroke="#06b6d4" stroke-width="3"/>
    <circle cx="0" cy="5" r="5" fill="#1e293b" stroke="#06b6d4" stroke-width="2"/>
    <!-- Contact mobile (ouvert: x2=15, fermé: x2=0) -->
    <line id="KP1-contact" x1="0" y1="10" x2="15" y2="28" stroke="#f59e0b" stroke-width="4" stroke-linecap="round"/>
    <!-- Contact fixe -->
    <line id="KP1-fixed" x1="0" y1="50" x2="0" y2="38" stroke="#f59e0b" stroke-width="4" stroke-linecap="round"/>
    <!-- Borne basse -->
    <circle cx="0" cy="53" r="5" fill="#1e293b" stroke="#06b6d4" stroke-width="2"/>
    <line x1="0" y1="58" x2="0" y2="70" stroke="#06b6d4" stroke-width="3"/>
    <!-- Bobine (symbole rectangulaire) -->
    <rect id="KP1-coil" x="12" y="18" width="12" height="24" fill="none" stroke="#64748b" stroke-width="1.5" rx="2"/>
    <line id="KP1-coil-top" x1="18" y1="18" x2="18" y2="12" stroke="#64748b" stroke-width="1"/>
    <line id="KP1-coil-bot" x1="18" y1="42" x2="18" y2="48" stroke="#64748b" stroke-width="1"/>
    <!-- LED status -->
    <circle id="KP1-led" cx="-18" cy="0" r="4" fill="#525252"/>
    <!-- Label -->
    <text x="0" y="82" font-size="10px" text-anchor="middle" fill="#94a3b8" font-family="monospace" font-weight="bold">KP1</text>
  </g>
  
  <!-- KP2 - Fermé (exemple) -->
  <g id="KP2" transform="translate(426, 785)">
    <rect id="KP2-bg" x="-28" y="-8" width="56" height="70" fill="#0f172a" stroke="#22c55e" stroke-width="1.5" rx="4"/>
    <line x1="0" y1="-8" x2="0" y2="2" stroke="#06b6d4" stroke-width="3"/>
    <circle cx="0" cy="5" r="5" fill="#1e293b" stroke="#06b6d4" stroke-width="2"/>
    <!-- Contact fermé (x2=0) -->
    <line id="KP2-contact" x1="0" y1="10" x2="0" y2="33" stroke="#22c55e" stroke-width="4" stroke-linecap="round"/>
    <line id="KP2-fixed" x1="0" y1="50" x2="0" y2="38" stroke="#22c55e" stroke-width="4" stroke-linecap="round"/>
    <circle cx="0" cy="53" r="5" fill="#1e293b" stroke="#06b6d4" stroke-width="2"/>
    <line x1="0" y1="58" x2="0" y2="70" stroke="#06b6d4" stroke-width="3"/>
    <!-- Bobine alimentée -->
    <rect id="KP2-coil" x="12" y="18" width="12" height="24" fill="none" stroke="#22c55e" stroke-width="1.5" rx="2"/>
    <line id="KP2-coil-top" x1="18" y1="18" x2="18" y2="12" stroke="#22c55e" stroke-width="1"/>
    <line id="KP2-coil-bot" x1="18" y1="42" x2="18" y2="48" stroke="#22c55e" stroke-width="1"/>
    <!-- LED allumée -->
    <circle id="KP2-led" cx="-18" cy="0" r="4" fill="#22c55e" filter="url(#glowGreen)"/>
    <text x="0" y="82" font-size="10px" text-anchor="middle" fill="#94a3b8" font-family="monospace" font-weight="bold">KP2</text>
  </g>
  
  <!-- KP3 - Ouvert -->
  <g id="KP3" transform="translate(916, 785)">
    <rect id="KP3-bg" x="-28" y="-8" width="56" height="70" fill="#0f172a" stroke="#334155" stroke-width="1.5" rx="4"/>
    <line x1="0" y1="-8" x2="0" y2="2" stroke="#06b6d4" stroke-width="3"/>
    <circle cx="0" cy="5" r="5" fill="#1e293b" stroke="#06b6d4" stroke-width="2"/>
    <line id="KP3-contact" x1="0" y1="10" x2="15" y2="28" stroke="#f59e0b" stroke-width="4" stroke-linecap="round"/>
    <line id="KP3-fixed" x1="0" y1="50" x2="0" y2="38" stroke="#f59e0b" stroke-width="4" stroke-linecap="round"/>
    <circle cx="0" cy="53" r="5" fill="#1e293b" stroke="#06b6d4" stroke-width="2"/>
    <line x1="0" y1="58" x2="0" y2="70" stroke="#06b6d4" stroke-width="3"/>
    <rect id="KP3-coil" x="12" y="18" width="12" height="24" fill="none" stroke="#64748b" stroke-width="1.5" rx="2"/>
    <line id="KP3-coil-top" x1="18" y1="18" x2="18" y2="12" stroke="#64748b" stroke-width="1"/>
    <line id="KP3-coil-bot" x1="18" y1="42" x2="18" y2="48" stroke="#64748b" stroke-width="1"/>
    <circle id="KP3-led" cx="-18" cy="0" r="4" fill="#525252"/>
    <text x="0" y="82" font-size="10px" text-anchor="middle" fill="#94a3b8" font-family="monospace" font-weight="bold">KP3</text>
  </g>
  
  <!-- KP4 - Ouvert -->
  <g id="KP4" transform="translate(1257, 785)">
    <rect id="KP4-bg" x="-28" y="-8" width="56" height="70" fill="#0f172a" stroke="#334155" stroke-width="1.5" rx="4"/>
    <line x1="0" y1="-8" x2="0" y2="2" stroke="#06b6d4" stroke-width="3"/>
    <circle cx="0" cy="5" r="5" fill="#1e293b" stroke="#06b6d4" stroke-width="2"/>
    <line id="KP4-contact" x1="0" y1="10" x2="15" y2="28" stroke="#f59e0b" stroke-width="4" stroke-linecap="round"/>
    <line id="KP4-fixed" x1="0" y1="50" x2="0" y2="38" stroke="#f59e0b" stroke-width="4" stroke-linecap="round"/>
    <circle cx="0" cy="53" r="5" fill="#1e293b" stroke="#06b6d4" stroke-width="2"/>
    <line x1="0" y1="58" x2="0" y2="70" stroke="#06b6d4" stroke-width="3"/>
    <rect id="KP4-coil" x="12" y="18" width="12" height="24" fill="none" stroke="#64748b" stroke-width="1.5" rx="2"/>
    <line id="KP4-coil-top" x1="18" y1="18" x2="18" y2="12" stroke="#64748b" stroke-width="1"/>
    <line id="KP4-coil-bot" x1="18" y1="42" x2="18" y2="48" stroke="#64748b" stroke-width="1"/>
    <circle id="KP4-led" cx="-18" cy="0" r="4" fill="#525252"/>
    <text x="0" y="82" font-size="10px" text-anchor="middle" fill="#94a3b8" font-family="monospace" font-weight="bold">KP4</text>
  </g>

  <!-- ═══════════════════════════════════════════════════════════ -->
  <!-- CONNECTEURS PDC (Points de charge) -->
  <!-- ═══════════════════════════════════════════════════════════ -->
  
  <!-- PDC1 Connector -->
  <g id="PDC1-connector" transform="translate(44, -23)">
    <circle id="PDC1-connector-circle" cx="130" cy="880" r="25" fill="#1e293b" stroke="#3b82f6" stroke-width="3"/>
    <circle id="PDC1-led1" cx="120" cy="880" r="6" fill="#22c55e" stroke="#1e293b" stroke-width="1" filter="url(#glowGreen)"/>
    <circle id="PDC1-led2" cx="140" cy="880" r="6" fill="#22c55e" stroke="#1e293b" stroke-width="1" filter="url(#glowGreen)"/>
  </g>
  
  <!-- PDC1 Status -->
  <g id="PDC1" transform="translate(22, -32)">
    <rect id="PDC1-status-rect" x="10" y="920" width="240" height="40" fill="url(#panelGrad)" stroke="#2563eb" stroke-width="2" rx="4"/>
    <text x="25" y="945" font-size="12px" font-weight="600" fill="#60a5fa" font-family="monospace">PDC1</text>
    <rect id="PDC1-color" x="150" y="930" width="85" height="20" fill="#22c55e" stroke="#1e293b" rx="3"/>
    <text x="192" y="944" font-size="9px" text-anchor="middle" fill="#052e16" font-weight="bold" font-family="monospace">AVAILABLE</text>
  </g>
  
  <!-- PDC2 Connector -->
  <g id="PDC2-connector" transform="translate(-16, -23)">
    <circle id="PDC2-connector-circle" cx="442" cy="880" r="25" fill="#1e293b" stroke="#3b82f6" stroke-width="3"/>
    <circle id="PDC2-led1" cx="432" cy="880" r="6" fill="#3b82f6" stroke="#1e293b" stroke-width="1" filter="url(#glowCyan)"/>
    <circle id="PDC2-led2" cx="452" cy="880" r="6" fill="#3b82f6" stroke="#1e293b" stroke-width="1" filter="url(#glowCyan)"/>
  </g>
  
  <!-- PDC2 Status -->
  <g id="PDC2" transform="translate(-16, -31)">
    <rect id="PDC2-status-rect" x="322" y="920" width="240" height="40" fill="url(#panelGrad)" stroke="#2563eb" stroke-width="2" rx="4"/>
    <text x="337" y="945" font-size="12px" font-weight="600" fill="#60a5fa" font-family="monospace">PDC2</text>
    <rect id="PDC2-color" x="462" y="930" width="85" height="20" fill="#3b82f6" stroke="#1e293b" rx="3"/>
    <text x="504" y="944" font-size="9px" text-anchor="middle" fill="#ffffff" font-weight="bold" font-family="monospace">CHARGING</text>
  </g>
  
  <!-- PDC3 Connector -->
  <g id="PDC3-connector" transform="translate(-36, -23)">
    <circle id="PDC3-connector-circle" cx="952" cy="880" r="25" fill="#1e293b" stroke="#3b82f6" stroke-width="3"/>
    <circle id="PDC3-led1" cx="942" cy="880" r="6" fill="#eab308" stroke="#1e293b" stroke-width="1" filter="url(#glowOrange)"/>
    <circle id="PDC3-led2" cx="962" cy="880" r="6" fill="#eab308" stroke="#1e293b" stroke-width="1" filter="url(#glowOrange)"/>
  </g>
  
  <!-- PDC3 Status -->
  <g id="PDC3" transform="translate(-35, -33)">
    <rect id="PDC3-status-rect" x="832" y="920" width="240" height="40" fill="url(#panelGrad)" stroke="#2563eb" stroke-width="2" rx="4"/>
    <text x="847" y="945" font-size="12px" font-weight="600" fill="#60a5fa" font-family="monospace">PDC3</text>
    <rect id="PDC3-color" x="972" y="930" width="85" height="20" fill="#eab308" stroke="#1e293b" rx="3"/>
    <text x="1014" y="944" font-size="9px" text-anchor="middle" fill="#422006" font-weight="bold" font-family="monospace">WARNING</text>
  </g>
  
  <!-- PDC4 Connector -->
  <g id="PDC4-connector" transform="translate(-76, -23)">
    <circle id="PDC4-connector-circle" cx="1332" cy="880" r="25" fill="#1e293b" stroke="#3b82f6" stroke-width="3"/>
    <circle id="PDC4-led1" cx="1322" cy="880" r="6" fill="#ef4444" stroke="#1e293b" stroke-width="1"/>
    <circle id="PDC4-led2" cx="1342" cy="880" r="6" fill="#ef4444" stroke="#1e293b" stroke-width="1"/>
  </g>
  
  <!-- PDC4 Status -->
  <g id="PDC4" transform="translate(-84, -30)">
    <rect id="PDC4-status-rect" x="1212" y="920" width="240" height="40" fill="url(#panelGrad)" stroke="#2563eb" stroke-width="2" rx="4"/>
    <text x="1227" y="945" font-size="12px" font-weight="600" fill="#60a5fa" font-family="monospace">PDC4</text>
    <rect id="PDC4-color" x="1352" y="930" width="85" height="20" fill="#ef4444" stroke="#1e293b" rx="3"/>
    <text x="1394" y="944" font-size="9px" text-anchor="middle" fill="#ffffff" font-weight="bold" font-family="monospace">FAULT</text>
  </g>



</svg>
